# xmcd
#
# Track frame offsets: 
#        150
#        13000
#        31456
#        50253
#        61002
#        87036
#        98759
#        113454
#        128515
#        140095
#
# Disc length: 2112 seconds
#
# Revision: 0
# Processed by: cddbd v1.5.2PL0 Copyright (c) Steve Scherf et al.
# Submitted via: ExactAudioCopy v0.95b4
#
DISCID=72083e0a
DTITLE=Soloviev Alex - Sunny Blues
DYEAR=1900
DGENRE=Blues
TTITLE0=01 Sunny Blues
TTITLE1=02 Blues, Why Do You Worry My?
TTITLE2=03 Soloviev's Jumping
TTITLE3=04 Baby Blues
TTITLE4=05 All Blues
TTITLE5=06 Brain Waves
TTITLE6=07 Going Down South
TTITLE7=08 Brothers Train
TTITLE8=09 Slide 4 R. O.
TTITLE9=10 Big Walters Boogie by Alex
EXTD=
EXTT0=
EXTT1=
EXTT2=
EXTT3=
EXTT4=
EXTT5=
EXTT6=
EXTT7=
EXTT8=
EXTT9=
PLAYORDER=
